<?xml version="1.0" encoding="UTF-8" ?>
<svg version="1.1" width="48" height="48" xmlns="http://www.w3.org/2000/svg" shape-rendering="crispEdges">
<rect x="0" y="0" width="2" height="2" fill="#663931" />
<rect x="2" y="0" width="2" height="2" fill="#663931" />
<rect x="4" y="0" width="2" height="2" fill="#663931" />
<rect x="6" y="0" width="2" height="2" fill="#663931" />
<rect x="8" y="0" width="2" height="2" fill="#663931" />
<rect x="10" y="0" width="2" height="2" fill="#663931" />
<rect x="12" y="0" width="2" height="2" fill="#663931" />
<rect x="14" y="0" width="2" height="2" fill="#663931" />
<rect x="16" y="0" width="2" height="2" fill="#663931" />
<rect x="18" y="0" width="2" height="2" fill="#663931" />
<rect x="20" y="0" width="2" height="2" fill="#663931" />
<rect x="22" y="0" width="2" height="2" fill="#663931" />
<rect x="24" y="0" width="2" height="2" fill="#663931" />
<rect x="26" y="0" width="2" height="2" fill="#663931" />
<rect x="28" y="0" width="2" height="2" fill="#663931" />
<rect x="30" y="0" width="2" height="2" fill="#663931" />
<rect x="32" y="0" width="2" height="2" fill="#663931" />
<rect x="34" y="0" width="2" height="2" fill="#663931" />
<rect x="36" y="0" width="2" height="2" fill="#663931" />
<rect x="38" y="0" width="2" height="2" fill="#663931" />
<rect x="40" y="0" width="2" height="2" fill="#663931" />
<rect x="42" y="0" width="2" height="2" fill="#663931" />
<rect x="44" y="0" width="2" height="2" fill="#663931" />
<rect x="46" y="0" width="2" height="2" fill="#663931" />
<rect x="0" y="2" width="2" height="2" fill="#663931" />
<rect x="2" y="2" width="2" height="2" fill="#663931" />
<rect x="4" y="2" width="2" height="2" fill="#8A6F30" />
<rect x="6" y="2" width="2" height="2" fill="#8A6F30" />
<rect x="8" y="2" width="2" height="2" fill="#8A6F30" />
<rect x="10" y="2" width="2" height="2" fill="#8A6F30" />
<rect x="12" y="2" width="2" height="2" fill="#8A6F30" />
<rect x="14" y="2" width="2" height="2" fill="#8A6F30" />
<rect x="16" y="2" width="2" height="2" fill="#8A6F30" />
<rect x="18" y="2" width="2" height="2" fill="#8A6F30" />
<rect x="20" y="2" width="2" height="2" fill="#8A6F30" />
<rect x="22" y="2" width="2" height="2" fill="#8A6F30" />
<rect x="24" y="2" width="2" height="2" fill="#8A6F30" />
<rect x="26" y="2" width="2" height="2" fill="#8A6F30" />
<rect x="28" y="2" width="2" height="2" fill="#8A6F30" />
<rect x="30" y="2" width="2" height="2" fill="#8A6F30" />
<rect x="32" y="2" width="2" height="2" fill="#8A6F30" />
<rect x="34" y="2" width="2" height="2" fill="#8A6F30" />
<rect x="36" y="2" width="2" height="2" fill="#8A6F30" />
<rect x="38" y="2" width="2" height="2" fill="#8A6F30" />
<rect x="40" y="2" width="2" height="2" fill="#8A6F30" />
<rect x="42" y="2" width="2" height="2" fill="#8A6F30" />
<rect x="44" y="2" width="2" height="2" fill="#663931" />
<rect x="46" y="2" width="2" height="2" fill="#663931" />
<rect x="0" y="4" width="2" height="2" fill="#663931" />
<rect x="2" y="4" width="2" height="2" fill="#8A6F30" />
<rect x="4" y="4" width="2" height="2" fill="#8A6F30" />
<rect x="6" y="4" width="2" height="2" fill="#8A6F30" />
<rect x="8" y="4" width="2" height="2" fill="#663931" />
<rect x="10" y="4" width="2" height="2" fill="#663931" />
<rect x="12" y="4" width="2" height="2" fill="#663931" />
<rect x="14" y="4" width="2" height="2" fill="#8A6F30" />
<rect x="16" y="4" width="2" height="2" fill="#8A6F30" />
<rect x="18" y="4" width="2" height="2" fill="#8A6F30" />
<rect x="20" y="4" width="2" height="2" fill="#8A6F30" />
<rect x="22" y="4" width="2" height="2" fill="#8A6F30" />
<rect x="24" y="4" width="2" height="2" fill="#8A6F30" />
<rect x="26" y="4" width="2" height="2" fill="#8A6F30" />
<rect x="28" y="4" width="2" height="2" fill="#8A6F30" />
<rect x="30" y="4" width="2" height="2" fill="#8A6F30" />
<rect x="32" y="4" width="2" height="2" fill="#8A6F30" />
<rect x="34" y="4" width="2" height="2" fill="#663931" />
<rect x="36" y="4" width="2" height="2" fill="#663931" />
<rect x="38" y="4" width="2" height="2" fill="#663931" />
<rect x="40" y="4" width="2" height="2" fill="#8A6F30" />
<rect x="42" y="4" width="2" height="2" fill="#8A6F30" />
<rect x="44" y="4" width="2" height="2" fill="#8A6F30" />
<rect x="46" y="4" width="2" height="2" fill="#663931" />
<rect x="0" y="6" width="2" height="2" fill="#663931" />
<rect x="2" y="6" width="2" height="2" fill="#8A6F30" />
<rect x="4" y="6" width="2" height="2" fill="#8A6F30" />
<rect x="6" y="6" width="2" height="2" fill="#663931" />
<rect x="8" y="6" width="2" height="2" fill="#141D2B" />
<rect x="10" y="6" width="2" height="2" fill="#141D2B" />
<rect x="12" y="6" width="2" height="2" fill="#141D2B" />
<rect x="14" y="6" width="2" height="2" fill="#663931" />
<rect x="16" y="6" width="2" height="2" fill="#8A6F30" />
<rect x="18" y="6" width="2" height="2" fill="#8A6F30" />
<rect x="20" y="6" width="2" height="2" fill="#8A6F30" />
<rect x="22" y="6" width="2" height="2" fill="#8A6F30" />
<rect x="24" y="6" width="2" height="2" fill="#8A6F30" />
<rect x="26" y="6" width="2" height="2" fill="#8A6F30" />
<rect x="28" y="6" width="2" height="2" fill="#8A6F30" />
<rect x="30" y="6" width="2" height="2" fill="#8A6F30" />
<rect x="32" y="6" width="2" height="2" fill="#663931" />
<rect x="34" y="6" width="2" height="2" fill="#141D2B" />
<rect x="36" y="6" width="2" height="2" fill="#141D2B" />
<rect x="38" y="6" width="2" height="2" fill="#141D2B" />
<rect x="40" y="6" width="2" height="2" fill="#663931" />
<rect x="42" y="6" width="2" height="2" fill="#8A6F30" />
<rect x="44" y="6" width="2" height="2" fill="#8A6F30" />
<rect x="46" y="6" width="2" height="2" fill="#663931" />
<rect x="0" y="8" width="2" height="2" fill="#663931" />
<rect x="2" y="8" width="2" height="2" fill="#8A6F30" />
<rect x="4" y="8" width="2" height="2" fill="#663931" />
<rect x="6" y="8" width="2" height="2" fill="#6E1C1C" />
<rect x="8" y="8" width="2" height="2" fill="#141D2B" />
<rect x="10" y="8" width="2" height="2" fill="#141D2B" />
<rect x="12" y="8" width="2" height="2" fill="#141D2B" />
<rect x="14" y="8" width="2" height="2" fill="#141D2B" />
<rect x="16" y="8" width="2" height="2" fill="#663931" />
<rect x="18" y="8" width="2" height="2" fill="#8A6F30" />
<rect x="20" y="8" width="2" height="2" fill="#8A6F30" />
<rect x="22" y="8" width="2" height="2" fill="#8A6F30" />
<rect x="24" y="8" width="2" height="2" fill="#8A6F30" />
<rect x="26" y="8" width="2" height="2" fill="#8A6F30" />
<rect x="28" y="8" width="2" height="2" fill="#8A6F30" />
<rect x="30" y="8" width="2" height="2" fill="#663931" />
<rect x="32" y="8" width="2" height="2" fill="#141D2B" />
<rect x="34" y="8" width="2" height="2" fill="#141D2B" />
<rect x="36" y="8" width="2" height="2" fill="#141D2B" />
<rect x="38" y="8" width="2" height="2" fill="#141D2B" />
<rect x="40" y="8" width="2" height="2" fill="#6E1C1C" />
<rect x="42" y="8" width="2" height="2" fill="#663931" />
<rect x="44" y="8" width="2" height="2" fill="#8A6F30" />
<rect x="46" y="8" width="2" height="2" fill="#663931" />
<rect x="0" y="10" width="2" height="2" fill="#663931" />
<rect x="2" y="10" width="2" height="2" fill="#8A6F30" />
<rect x="4" y="10" width="2" height="2" fill="#663931" />
<rect x="6" y="10" width="2" height="2" fill="#AC3232" />
<rect x="8" y="10" width="2" height="2" fill="#6E1C1C" />
<rect x="10" y="10" width="2" height="2" fill="#6E1C1C" />
<rect x="12" y="10" width="2" height="2" fill="#6E1C1C" />
<rect x="14" y="10" width="2" height="2" fill="#141D2B" />
<rect x="16" y="10" width="2" height="2" fill="#141D2B" />
<rect x="18" y="10" width="2" height="2" fill="#663931" />
<rect x="20" y="10" width="2" height="2" fill="#8A6F30" />
<rect x="22" y="10" width="2" height="2" fill="#8A6F30" />
<rect x="24" y="10" width="2" height="2" fill="#8A6F30" />
<rect x="26" y="10" width="2" height="2" fill="#8A6F30" />
<rect x="28" y="10" width="2" height="2" fill="#663931" />
<rect x="30" y="10" width="2" height="2" fill="#141D2B" />
<rect x="32" y="10" width="2" height="2" fill="#141D2B" />
<rect x="34" y="10" width="2" height="2" fill="#6E1C1C" />
<rect x="36" y="10" width="2" height="2" fill="#6E1C1C" />
<rect x="38" y="10" width="2" height="2" fill="#6E1C1C" />
<rect x="40" y="10" width="2" height="2" fill="#AC3232" />
<rect x="42" y="10" width="2" height="2" fill="#663931" />
<rect x="44" y="10" width="2" height="2" fill="#8A6F30" />
<rect x="46" y="10" width="2" height="2" fill="#663931" />
<rect x="0" y="12" width="2" height="2" fill="#663931" />
<rect x="2" y="12" width="2" height="2" fill="#663931" />
<rect x="4" y="12" width="2" height="2" fill="#141D2B" />
<rect x="6" y="12" width="2" height="2" fill="#AC3232" />
<rect x="8" y="12" width="2" height="2" fill="#AC3232" />
<rect x="10" y="12" width="2" height="2" fill="#AC3232" />
<rect x="12" y="12" width="2" height="2" fill="#AC3232" />
<rect x="14" y="12" width="2" height="2" fill="#6E1C1C" />
<rect x="16" y="12" width="2" height="2" fill="#6E1C1C" />
<rect x="18" y="12" width="2" height="2" fill="#141D2B" />
<rect x="20" y="12" width="2" height="2" fill="#663931" />
<rect x="22" y="12" width="2" height="2" fill="#663931" />
<rect x="24" y="12" width="2" height="2" fill="#663931" />
<rect x="26" y="12" width="2" height="2" fill="#663931" />
<rect x="28" y="12" width="2" height="2" fill="#141D2B" />
<rect x="30" y="12" width="2" height="2" fill="#6E1C1C" />
<rect x="32" y="12" width="2" height="2" fill="#6E1C1C" />
<rect x="34" y="12" width="2" height="2" fill="#AC3232" />
<rect x="36" y="12" width="2" height="2" fill="#AC3232" />
<rect x="38" y="12" width="2" height="2" fill="#AC3232" />
<rect x="40" y="12" width="2" height="2" fill="#AC3232" />
<rect x="42" y="12" width="2" height="2" fill="#141D2B" />
<rect x="44" y="12" width="2" height="2" fill="#663931" />
<rect x="46" y="12" width="2" height="2" fill="#663931" />
<rect x="0" y="14" width="2" height="2" fill="#663931" />
<rect x="2" y="14" width="2" height="2" fill="#6E1C1C" />
<rect x="4" y="14" width="2" height="2" fill="#6E1C1C" />
<rect x="6" y="14" width="2" height="2" fill="#141D2B" />
<rect x="8" y="14" width="2" height="2" fill="#AC3232" />
<rect x="10" y="14" width="2" height="2" fill="#AC3232" />
<rect x="12" y="14" width="2" height="2" fill="#AC3232" />
<rect x="14" y="14" width="2" height="2" fill="#AC3232" />
<rect x="16" y="14" width="2" height="2" fill="#AC3232" />
<rect x="18" y="14" width="2" height="2" fill="#6E1C1C" />
<rect x="20" y="14" width="2" height="2" fill="#2A2123" />
<rect x="22" y="14" width="2" height="2" fill="#2A2123" />
<rect x="24" y="14" width="2" height="2" fill="#2A2123" />
<rect x="26" y="14" width="2" height="2" fill="#2A2123" />
<rect x="28" y="14" width="2" height="2" fill="#6E1C1C" />
<rect x="30" y="14" width="2" height="2" fill="#AC3232" />
<rect x="32" y="14" width="2" height="2" fill="#AC3232" />
<rect x="34" y="14" width="2" height="2" fill="#AC3232" />
<rect x="36" y="14" width="2" height="2" fill="#AC3232" />
<rect x="38" y="14" width="2" height="2" fill="#AC3232" />
<rect x="40" y="14" width="2" height="2" fill="#141D2B" />
<rect x="42" y="14" width="2" height="2" fill="#6E1C1C" />
<rect x="44" y="14" width="2" height="2" fill="#6E1C1C" />
<rect x="46" y="14" width="2" height="2" fill="#663931" />
<rect x="0" y="16" width="2" height="2" fill="#663931" />
<rect x="2" y="16" width="2" height="2" fill="#AC3232" />
<rect x="4" y="16" width="2" height="2" fill="#AC3232" />
<rect x="6" y="16" width="2" height="2" fill="#6E1C1C" />
<rect x="8" y="16" width="2" height="2" fill="#6E1C1C" />
<rect x="10" y="16" width="2" height="2" fill="#AC3232" />
<rect x="12" y="16" width="2" height="2" fill="#AC3232" />
<rect x="14" y="16" width="2" height="2" fill="#AC3232" />
<rect x="16" y="16" width="2" height="2" fill="#6D565B" />
<rect x="18" y="16" width="2" height="2" fill="#4F4144" />
<rect x="20" y="16" width="2" height="2" fill="#4F4144" />
<rect x="22" y="16" width="2" height="2" fill="#4F4144" />
<rect x="24" y="16" width="2" height="2" fill="#6D565B" />
<rect x="26" y="16" width="2" height="2" fill="#4F4144" />
<rect x="28" y="16" width="2" height="2" fill="#6D565B" />
<rect x="30" y="16" width="2" height="2" fill="#6D565B" />
<rect x="32" y="16" width="2" height="2" fill="#AC3232" />
<rect x="34" y="16" width="2" height="2" fill="#AC3232" />
<rect x="36" y="16" width="2" height="2" fill="#AC3232" />
<rect x="38" y="16" width="2" height="2" fill="#6E1C1C" />
<rect x="40" y="16" width="2" height="2" fill="#6E1C1C" />
<rect x="42" y="16" width="2" height="2" fill="#AC3232" />
<rect x="44" y="16" width="2" height="2" fill="#AC3232" />
<rect x="46" y="16" width="2" height="2" fill="#663931" />
<rect x="0" y="18" width="2" height="2" fill="#663931" />
<rect x="2" y="18" width="2" height="2" fill="#141D2B" />
<rect x="4" y="18" width="2" height="2" fill="#AC3232" />
<rect x="6" y="18" width="2" height="2" fill="#AC3232" />
<rect x="8" y="18" width="2" height="2" fill="#AC3232" />
<rect x="10" y="18" width="2" height="2" fill="#6E1C1C" />
<rect x="12" y="18" width="2" height="2" fill="#AC3232" />
<rect x="14" y="18" width="2" height="2" fill="#4F4144" />
<rect x="16" y="18" width="2" height="2" fill="#6D565B" />
<rect x="18" y="18" width="2" height="2" fill="#6D565B" />
<rect x="20" y="18" width="2" height="2" fill="#4F4144" />
<rect x="22" y="18" width="2" height="2" fill="#4F4144" />
<rect x="24" y="18" width="2" height="2" fill="#4F4144" />
<rect x="26" y="18" width="2" height="2" fill="#4F4144" />
<rect x="28" y="18" width="2" height="2" fill="#4F4144" />
<rect x="30" y="18" width="2" height="2" fill="#6D565B" />
<rect x="32" y="18" width="2" height="2" fill="#4F4144" />
<rect x="34" y="18" width="2" height="2" fill="#AC3232" />
<rect x="36" y="18" width="2" height="2" fill="#6E1C1C" />
<rect x="38" y="18" width="2" height="2" fill="#AC3232" />
<rect x="40" y="18" width="2" height="2" fill="#AC3232" />
<rect x="42" y="18" width="2" height="2" fill="#AC3232" />
<rect x="44" y="18" width="2" height="2" fill="#141D2B" />
<rect x="46" y="18" width="2" height="2" fill="#663931" />
<rect x="0" y="20" width="2" height="2" fill="#6E1C1C" />
<rect x="2" y="20" width="2" height="2" fill="#6E1C1C" />
<rect x="4" y="20" width="2" height="2" fill="#141D2B" />
<rect x="6" y="20" width="2" height="2" fill="#AC3232" />
<rect x="8" y="20" width="2" height="2" fill="#AC3232" />
<rect x="10" y="20" width="2" height="2" fill="#AC3232" />
<rect x="12" y="20" width="2" height="2" fill="#4F4144" />
<rect x="14" y="20" width="2" height="2" fill="#4F4144" />
<rect x="16" y="20" width="2" height="2" fill="#4F4144" />
<rect x="18" y="20" width="2" height="2" fill="#6D565B" />
<rect x="20" y="20" width="2" height="2" fill="#6D565B" />
<rect x="22" y="20" width="2" height="2" fill="#4F4144" />
<rect x="24" y="20" width="2" height="2" fill="#6D565B" />
<rect x="26" y="20" width="2" height="2" fill="#4F4144" />
<rect x="28" y="20" width="2" height="2" fill="#4F4144" />
<rect x="30" y="20" width="2" height="2" fill="#4F4144" />
<rect x="32" y="20" width="2" height="2" fill="#4F4144" />
<rect x="34" y="20" width="2" height="2" fill="#4F4144" />
<rect x="36" y="20" width="2" height="2" fill="#AC3232" />
<rect x="38" y="20" width="2" height="2" fill="#AC3232" />
<rect x="40" y="20" width="2" height="2" fill="#AC3232" />
<rect x="42" y="20" width="2" height="2" fill="#141D2B" />
<rect x="44" y="20" width="2" height="2" fill="#6E1C1C" />
<rect x="46" y="20" width="2" height="2" fill="#6E1C1C" />
<rect x="0" y="22" width="2" height="2" fill="#AC3232" />
<rect x="2" y="22" width="2" height="2" fill="#AC3232" />
<rect x="4" y="22" width="2" height="2" fill="#6E1C1C" />
<rect x="6" y="22" width="2" height="2" fill="#6E1C1C" />
<rect x="8" y="22" width="2" height="2" fill="#AC3232" />
<rect x="10" y="22" width="2" height="2" fill="#6D565B" />
<rect x="12" y="22" width="2" height="2" fill="#4F4144" />
<rect x="14" y="22" width="2" height="2" fill="#CBDBFC" />
<rect x="16" y="22" width="2" height="2" fill="#C0CBE1" />
<rect x="18" y="22" width="2" height="2" fill="#4F4144" />
<rect x="20" y="22" width="2" height="2" fill="#4F4144" />
<rect x="22" y="22" width="2" height="2" fill="#4F4144" />
<rect x="24" y="22" width="2" height="2" fill="#4F4144" />
<rect x="26" y="22" width="2" height="2" fill="#4F4144" />
<rect x="28" y="22" width="2" height="2" fill="#4F4144" />
<rect x="30" y="22" width="2" height="2" fill="#C0CBE1" />
<rect x="32" y="22" width="2" height="2" fill="#CBDBFC" />
<rect x="34" y="22" width="2" height="2" fill="#4F4144" />
<rect x="36" y="22" width="2" height="2" fill="#6D565B" />
<rect x="38" y="22" width="2" height="2" fill="#AC3232" />
<rect x="40" y="22" width="2" height="2" fill="#6E1C1C" />
<rect x="42" y="22" width="2" height="2" fill="#6E1C1C" />
<rect x="44" y="22" width="2" height="2" fill="#AC3232" />
<rect x="46" y="22" width="2" height="2" fill="#AC3232" />
<rect x="0" y="24" width="2" height="2" fill="#663931" />
<rect x="2" y="24" width="2" height="2" fill="#AC3232" />
<rect x="4" y="24" width="2" height="2" fill="#AC3232" />
<rect x="6" y="24" width="2" height="2" fill="#AC3232" />
<rect x="8" y="24" width="2" height="2" fill="#6E1C1C" />
<rect x="10" y="24" width="2" height="2" fill="#4F4144" />
<rect x="12" y="24" width="2" height="2" fill="#CBDBFC" />
<rect x="14" y="24" width="2" height="2" fill="#C0CBE1" />
<rect x="16" y="24" width="2" height="2" fill="#CBDBFC" />
<rect x="18" y="24" width="2" height="2" fill="#4F4144" />
<rect x="20" y="24" width="2" height="2" fill="#6D565B" />
<rect x="22" y="24" width="2" height="2" fill="#4F4144" />
<rect x="24" y="24" width="2" height="2" fill="#4F4144" />
<rect x="26" y="24" width="2" height="2" fill="#6D565B" />
<rect x="28" y="24" width="2" height="2" fill="#4F4144" />
<rect x="30" y="24" width="2" height="2" fill="#CBDBFC" />
<rect x="32" y="24" width="2" height="2" fill="#C0CBE1" />
<rect x="34" y="24" width="2" height="2" fill="#CBDBFC" />
<rect x="36" y="24" width="2" height="2" fill="#4F4144" />
<rect x="38" y="24" width="2" height="2" fill="#6E1C1C" />
<rect x="40" y="24" width="2" height="2" fill="#AC3232" />
<rect x="42" y="24" width="2" height="2" fill="#AC3232" />
<rect x="44" y="24" width="2" height="2" fill="#AC3232" />
<rect x="46" y="24" width="2" height="2" fill="#663931" />
<rect x="0" y="26" width="2" height="2" fill="#663931" />
<rect x="2" y="26" width="2" height="2" fill="#141D2B" />
<rect x="4" y="26" width="2" height="2" fill="#AC3232" />
<rect x="6" y="26" width="2" height="2" fill="#AC3232" />
<rect x="8" y="26" width="2" height="2" fill="#6D565B" />
<rect x="10" y="26" width="2" height="2" fill="#4F4144" />
<rect x="12" y="26" width="2" height="2" fill="#C0CBE1" />
<rect x="14" y="26" width="2" height="2" fill="#CBDBFC" />
<rect x="16" y="26" width="2" height="2" fill="#C0CBE1" />
<rect x="18" y="26" width="2" height="2" fill="#4F4144" />
<rect x="20" y="26" width="2" height="2" fill="#4F4144" />
<rect x="22" y="26" width="2" height="2" fill="#4F4144" />
<rect x="24" y="26" width="2" height="2" fill="#6D565B" />
<rect x="26" y="26" width="2" height="2" fill="#4F4144" />
<rect x="28" y="26" width="2" height="2" fill="#6D565B" />
<rect x="30" y="26" width="2" height="2" fill="#C0CBE1" />
<rect x="32" y="26" width="2" height="2" fill="#CBDBFC" />
<rect x="34" y="26" width="2" height="2" fill="#C0CBE1" />
<rect x="36" y="26" width="2" height="2" fill="#6D565B" />
<rect x="38" y="26" width="2" height="2" fill="#6D565B" />
<rect x="40" y="26" width="2" height="2" fill="#AC3232" />
<rect x="42" y="26" width="2" height="2" fill="#AC3232" />
<rect x="44" y="26" width="2" height="2" fill="#141D2B" />
<rect x="46" y="26" width="2" height="2" fill="#663931" />
<rect x="0" y="28" width="2" height="2" fill="#663931" />
<rect x="2" y="28" width="2" height="2" fill="#141D2B" />
<rect x="4" y="28" width="2" height="2" fill="#141D2B" />
<rect x="6" y="28" width="2" height="2" fill="#AC3232" />
<rect x="8" y="28" width="2" height="2" fill="#4F4144" />
<rect x="10" y="28" width="2" height="2" fill="#4F4144" />
<rect x="12" y="28" width="2" height="2" fill="#6D565B" />
<rect x="14" y="28" width="2" height="2" fill="#4F4144" />
<rect x="16" y="28" width="2" height="2" fill="#4F4144" />
<rect x="18" y="28" width="2" height="2" fill="#6D565B" />
<rect x="20" y="28" width="2" height="2" fill="#4F4144" />
<rect x="22" y="28" width="2" height="2" fill="#4F4144" />
<rect x="24" y="28" width="2" height="2" fill="#4F4144" />
<rect x="26" y="28" width="2" height="2" fill="#4F4144" />
<rect x="28" y="28" width="2" height="2" fill="#4F4144" />
<rect x="30" y="28" width="2" height="2" fill="#4F4144" />
<rect x="32" y="28" width="2" height="2" fill="#4F4144" />
<rect x="34" y="28" width="2" height="2" fill="#4F4144" />
<rect x="36" y="28" width="2" height="2" fill="#4F4144" />
<rect x="38" y="28" width="2" height="2" fill="#6D565B" />
<rect x="40" y="28" width="2" height="2" fill="#AC3232" />
<rect x="42" y="28" width="2" height="2" fill="#141D2B" />
<rect x="44" y="28" width="2" height="2" fill="#141D2B" />
<rect x="46" y="28" width="2" height="2" fill="#663931" />
<rect x="0" y="30" width="2" height="2" fill="#663931" />
<rect x="2" y="30" width="2" height="2" fill="#141D2B" />
<rect x="4" y="30" width="2" height="2" fill="#141D2B" />
<rect x="6" y="30" width="2" height="2" fill="#141D2B" />
<rect x="8" y="30" width="2" height="2" fill="#2A2123" />
<rect x="10" y="30" width="2" height="2" fill="#4F4144" />
<rect x="12" y="30" width="2" height="2" fill="#4F4144" />
<rect x="14" y="30" width="2" height="2" fill="#EEC39A" />
<rect x="16" y="30" width="2" height="2" fill="#EEC39A" />
<rect x="18" y="30" width="2" height="2" fill="#4F4144" />
<rect x="20" y="30" width="2" height="2" fill="#4F4144" />
<rect x="22" y="30" width="2" height="2" fill="#6D565B" />
<rect x="24" y="30" width="2" height="2" fill="#4F4144" />
<rect x="26" y="30" width="2" height="2" fill="#6D565B" />
<rect x="28" y="30" width="2" height="2" fill="#4F4144" />
<rect x="30" y="30" width="2" height="2" fill="#EEC39A" />
<rect x="32" y="30" width="2" height="2" fill="#EEC39A" />
<rect x="34" y="30" width="2" height="2" fill="#4F4144" />
<rect x="36" y="30" width="2" height="2" fill="#4F4144" />
<rect x="38" y="30" width="2" height="2" fill="#2A2123" />
<rect x="40" y="30" width="2" height="2" fill="#141D2B" />
<rect x="42" y="30" width="2" height="2" fill="#141D2B" />
<rect x="44" y="30" width="2" height="2" fill="#141D2B" />
<rect x="46" y="30" width="2" height="2" fill="#663931" />
<rect x="0" y="32" width="2" height="2" fill="#663931" />
<rect x="2" y="32" width="2" height="2" fill="#663931" />
<rect x="4" y="32" width="2" height="2" fill="#141D2B" />
<rect x="6" y="32" width="2" height="2" fill="#141D2B" />
<rect x="8" y="32" width="2" height="2" fill="#794F47" />
<rect x="10" y="32" width="2" height="2" fill="#EEC39A" />
<rect x="12" y="32" width="2" height="2" fill="#EEC39A" />
<rect x="14" y="32" width="2" height="2" fill="#EEC39A" />
<rect x="16" y="32" width="2" height="2" fill="#EEC39A" />
<rect x="18" y="32" width="2" height="2" fill="#EEC39A" />
<rect x="20" y="32" width="2" height="2" fill="#EEC39A" />
<rect x="22" y="32" width="2" height="2" fill="#EEC39A" />
<rect x="24" y="32" width="2" height="2" fill="#EEC39A" />
<rect x="26" y="32" width="2" height="2" fill="#EEC39A" />
<rect x="28" y="32" width="2" height="2" fill="#EEC39A" />
<rect x="30" y="32" width="2" height="2" fill="#EEC39A" />
<rect x="32" y="32" width="2" height="2" fill="#EEC39A" />
<rect x="34" y="32" width="2" height="2" fill="#EEC39A" />
<rect x="36" y="32" width="2" height="2" fill="#EEC39A" />
<rect x="38" y="32" width="2" height="2" fill="#794F47" />
<rect x="40" y="32" width="2" height="2" fill="#141D2B" />
<rect x="42" y="32" width="2" height="2" fill="#141D2B" />
<rect x="44" y="32" width="2" height="2" fill="#663931" />
<rect x="46" y="32" width="2" height="2" fill="#663931" />
<rect x="0" y="34" width="2" height="2" fill="#663931" />
<rect x="2" y="34" width="2" height="2" fill="#4B692F" />
<rect x="4" y="34" width="2" height="2" fill="#663931" />
<rect x="6" y="34" width="2" height="2" fill="#141D2B" />
<rect x="8" y="34" width="2" height="2" fill="#794F47" />
<rect x="10" y="34" width="2" height="2" fill="#EEC39A" />
<rect x="12" y="34" width="2" height="2" fill="#EEC39A" />
<rect x="14" y="34" width="2" height="2" fill="#EEC39A" />
<rect x="16" y="34" width="2" height="2" fill="#EEC39A" />
<rect x="18" y="34" width="2" height="2" fill="#EEC39A" />
<rect x="20" y="34" width="2" height="2" fill="#EEC39A" />
<rect x="22" y="34" width="2" height="2" fill="#EEC39A" />
<rect x="24" y="34" width="2" height="2" fill="#EEC39A" />
<rect x="26" y="34" width="2" height="2" fill="#EEC39A" />
<rect x="28" y="34" width="2" height="2" fill="#EEC39A" />
<rect x="30" y="34" width="2" height="2" fill="#EEC39A" />
<rect x="32" y="34" width="2" height="2" fill="#EEC39A" />
<rect x="34" y="34" width="2" height="2" fill="#EEC39A" />
<rect x="36" y="34" width="2" height="2" fill="#EEC39A" />
<rect x="38" y="34" width="2" height="2" fill="#794F47" />
<rect x="40" y="34" width="2" height="2" fill="#141D2B" />
<rect x="42" y="34" width="2" height="2" fill="#663931" />
<rect x="44" y="34" width="2" height="2" fill="#4B692F" />
<rect x="46" y="34" width="2" height="2" fill="#663931" />
<rect x="0" y="36" width="2" height="2" fill="#663931" />
<rect x="2" y="36" width="2" height="2" fill="#4B692F" />
<rect x="4" y="36" width="2" height="2" fill="#4B692F" />
<rect x="6" y="36" width="2" height="2" fill="#663931" />
<rect x="8" y="36" width="2" height="2" fill="#141D2B" />
<rect x="10" y="36" width="2" height="2" fill="#794F47" />
<rect x="12" y="36" width="2" height="2" fill="#EEC39A" />
<rect x="14" y="36" width="2" height="2" fill="#EEC39A" />
<rect x="16" y="36" width="2" height="2" fill="#EEC39A" />
<rect x="18" y="36" width="2" height="2" fill="#EEC39A" />
<rect x="20" y="36" width="2" height="2" fill="#EEC39A" />
<rect x="22" y="36" width="2" height="2" fill="#EEC39A" />
<rect x="24" y="36" width="2" height="2" fill="#EEC39A" />
<rect x="26" y="36" width="2" height="2" fill="#EEC39A" />
<rect x="28" y="36" width="2" height="2" fill="#EEC39A" />
<rect x="30" y="36" width="2" height="2" fill="#EEC39A" />
<rect x="32" y="36" width="2" height="2" fill="#EEC39A" />
<rect x="34" y="36" width="2" height="2" fill="#EEC39A" />
<rect x="36" y="36" width="2" height="2" fill="#794F47" />
<rect x="38" y="36" width="2" height="2" fill="#141D2B" />
<rect x="40" y="36" width="2" height="2" fill="#663931" />
<rect x="42" y="36" width="2" height="2" fill="#4B692F" />
<rect x="44" y="36" width="2" height="2" fill="#4B692F" />
<rect x="46" y="36" width="2" height="2" fill="#663931" />
<rect x="0" y="38" width="2" height="2" fill="#663931" />
<rect x="2" y="38" width="2" height="2" fill="#4B692F" />
<rect x="4" y="38" width="2" height="2" fill="#4B692F" />
<rect x="6" y="38" width="2" height="2" fill="#4B692F" />
<rect x="8" y="38" width="2" height="2" fill="#663931" />
<rect x="10" y="38" width="2" height="2" fill="#141D2B" />
<rect x="12" y="38" width="2" height="2" fill="#794F47" />
<rect x="14" y="38" width="2" height="2" fill="#794F47" />
<rect x="16" y="38" width="2" height="2" fill="#EEC39A" />
<rect x="18" y="38" width="2" height="2" fill="#EEC39A" />
<rect x="20" y="38" width="2" height="2" fill="#EEC39A" />
<rect x="22" y="38" width="2" height="2" fill="#EEC39A" />
<rect x="24" y="38" width="2" height="2" fill="#EEC39A" />
<rect x="26" y="38" width="2" height="2" fill="#EEC39A" />
<rect x="28" y="38" width="2" height="2" fill="#EEC39A" />
<rect x="30" y="38" width="2" height="2" fill="#EEC39A" />
<rect x="32" y="38" width="2" height="2" fill="#794F47" />
<rect x="34" y="38" width="2" height="2" fill="#794F47" />
<rect x="36" y="38" width="2" height="2" fill="#141D2B" />
<rect x="38" y="38" width="2" height="2" fill="#663931" />
<rect x="40" y="38" width="2" height="2" fill="#4B692F" />
<rect x="42" y="38" width="2" height="2" fill="#4B692F" />
<rect x="44" y="38" width="2" height="2" fill="#4B692F" />
<rect x="46" y="38" width="2" height="2" fill="#663931" />
<rect x="0" y="40" width="2" height="2" fill="#663931" />
<rect x="2" y="40" width="2" height="2" fill="#4B692F" />
<rect x="4" y="40" width="2" height="2" fill="#4B692F" />
<rect x="6" y="40" width="2" height="2" fill="#4B692F" />
<rect x="8" y="40" width="2" height="2" fill="#4B692F" />
<rect x="10" y="40" width="2" height="2" fill="#663931" />
<rect x="12" y="40" width="2" height="2" fill="#141D2B" />
<rect x="14" y="40" width="2" height="2" fill="#141D2B" />
<rect x="16" y="40" width="2" height="2" fill="#794F47" />
<rect x="18" y="40" width="2" height="2" fill="#794F47" />
<rect x="20" y="40" width="2" height="2" fill="#794F47" />
<rect x="22" y="40" width="2" height="2" fill="#794F47" />
<rect x="24" y="40" width="2" height="2" fill="#794F47" />
<rect x="26" y="40" width="2" height="2" fill="#794F47" />
<rect x="28" y="40" width="2" height="2" fill="#794F47" />
<rect x="30" y="40" width="2" height="2" fill="#794F47" />
<rect x="32" y="40" width="2" height="2" fill="#141D2B" />
<rect x="34" y="40" width="2" height="2" fill="#141D2B" />
<rect x="36" y="40" width="2" height="2" fill="#663931" />
<rect x="38" y="40" width="2" height="2" fill="#4B692F" />
<rect x="40" y="40" width="2" height="2" fill="#4B692F" />
<rect x="42" y="40" width="2" height="2" fill="#4B692F" />
<rect x="44" y="40" width="2" height="2" fill="#4B692F" />
<rect x="46" y="40" width="2" height="2" fill="#663931" />
<rect x="0" y="42" width="2" height="2" fill="#663931" />
<rect x="2" y="42" width="2" height="2" fill="#4B692F" />
<rect x="4" y="42" width="2" height="2" fill="#4B692F" />
<rect x="6" y="42" width="2" height="2" fill="#4B692F" />
<rect x="8" y="42" width="2" height="2" fill="#4B692F" />
<rect x="10" y="42" width="2" height="2" fill="#4B692F" />
<rect x="12" y="42" width="2" height="2" fill="#663931" />
<rect x="14" y="42" width="2" height="2" fill="#141D2B" />
<rect x="16" y="42" width="2" height="2" fill="#141D2B" />
<rect x="18" y="42" width="2" height="2" fill="#141D2B" />
<rect x="20" y="42" width="2" height="2" fill="#141D2B" />
<rect x="22" y="42" width="2" height="2" fill="#141D2B" />
<rect x="24" y="42" width="2" height="2" fill="#141D2B" />
<rect x="26" y="42" width="2" height="2" fill="#141D2B" />
<rect x="28" y="42" width="2" height="2" fill="#141D2B" />
<rect x="30" y="42" width="2" height="2" fill="#141D2B" />
<rect x="32" y="42" width="2" height="2" fill="#141D2B" />
<rect x="34" y="42" width="2" height="2" fill="#663931" />
<rect x="36" y="42" width="2" height="2" fill="#4B692F" />
<rect x="38" y="42" width="2" height="2" fill="#4B692F" />
<rect x="40" y="42" width="2" height="2" fill="#4B692F" />
<rect x="42" y="42" width="2" height="2" fill="#4B692F" />
<rect x="44" y="42" width="2" height="2" fill="#4B692F" />
<rect x="46" y="42" width="2" height="2" fill="#663931" />
<rect x="0" y="44" width="2" height="2" fill="#663931" />
<rect x="2" y="44" width="2" height="2" fill="#663931" />
<rect x="4" y="44" width="2" height="2" fill="#4B692F" />
<rect x="6" y="44" width="2" height="2" fill="#4B692F" />
<rect x="8" y="44" width="2" height="2" fill="#4B692F" />
<rect x="10" y="44" width="2" height="2" fill="#4B692F" />
<rect x="12" y="44" width="2" height="2" fill="#4B692F" />
<rect x="14" y="44" width="2" height="2" fill="#663931" />
<rect x="16" y="44" width="2" height="2" fill="#141D2B" />
<rect x="18" y="44" width="2" height="2" fill="#141D2B" />
<rect x="20" y="44" width="2" height="2" fill="#141D2B" />
<rect x="22" y="44" width="2" height="2" fill="#141D2B" />
<rect x="24" y="44" width="2" height="2" fill="#141D2B" />
<rect x="26" y="44" width="2" height="2" fill="#141D2B" />
<rect x="28" y="44" width="2" height="2" fill="#141D2B" />
<rect x="30" y="44" width="2" height="2" fill="#141D2B" />
<rect x="32" y="44" width="2" height="2" fill="#663931" />
<rect x="34" y="44" width="2" height="2" fill="#4B692F" />
<rect x="36" y="44" width="2" height="2" fill="#4B692F" />
<rect x="38" y="44" width="2" height="2" fill="#4B692F" />
<rect x="40" y="44" width="2" height="2" fill="#4B692F" />
<rect x="42" y="44" width="2" height="2" fill="#4B692F" />
<rect x="44" y="44" width="2" height="2" fill="#663931" />
<rect x="46" y="44" width="2" height="2" fill="#663931" />
<rect x="0" y="46" width="2" height="2" fill="#663931" />
<rect x="2" y="46" width="2" height="2" fill="#663931" />
<rect x="4" y="46" width="2" height="2" fill="#663931" />
<rect x="6" y="46" width="2" height="2" fill="#663931" />
<rect x="8" y="46" width="2" height="2" fill="#663931" />
<rect x="10" y="46" width="2" height="2" fill="#663931" />
<rect x="12" y="46" width="2" height="2" fill="#663931" />
<rect x="14" y="46" width="2" height="2" fill="#663931" />
<rect x="16" y="46" width="2" height="2" fill="#663931" />
<rect x="18" y="46" width="2" height="2" fill="#663931" />
<rect x="20" y="46" width="2" height="2" fill="#663931" />
<rect x="22" y="46" width="2" height="2" fill="#663931" />
<rect x="24" y="46" width="2" height="2" fill="#663931" />
<rect x="26" y="46" width="2" height="2" fill="#663931" />
<rect x="28" y="46" width="2" height="2" fill="#663931" />
<rect x="30" y="46" width="2" height="2" fill="#663931" />
<rect x="32" y="46" width="2" height="2" fill="#663931" />
<rect x="34" y="46" width="2" height="2" fill="#663931" />
<rect x="36" y="46" width="2" height="2" fill="#663931" />
<rect x="38" y="46" width="2" height="2" fill="#663931" />
<rect x="40" y="46" width="2" height="2" fill="#663931" />
<rect x="42" y="46" width="2" height="2" fill="#663931" />
<rect x="44" y="46" width="2" height="2" fill="#663931" />
<rect x="46" y="46" width="2" height="2" fill="#663931" />
</svg>